<?xml version="1.0" standalone="no"?>
<!DOCTYPE svg PUBLIC "-//W3C//DTD SVG 20010904//EN"
 "http://www.w3.org/TR/2001/REC-SVG-20010904/DTD/svg10.dtd">
<svg version="1.0" xmlns="http://www.w3.org/2000/svg"
 width="1280.000000pt" height="1181.000000pt" viewBox="0 0 1280.000000 1181.000000"
 preserveAspectRatio="xMidYMid meet">
<g transform="translate(0.000000,1181.000000) scale(0.100000,-0.100000)"
fill="#000000" stroke="none">
<path d="M5625 11560 c-721 -225 -1328 -414 -4015 -1251 -635 -198 -1257 -392
-1382 -431 l-228 -71 0 -443 0 -442 93 29 c253 79 297 91 311 86 15 -6 16
-422 16 -4522 l0 -4515 120 0 120 0 0 4559 c0 3635 3 4560 13 4568 6 5 318
105 692 221 670 208 1379 429 3792 1181 673 210 1232 381 1242 381 11 0 498
-149 1083 -331 585 -182 1875 -585 2868 -894 l1805 -562 3 -4561 2 -4562 120
0 120 0 0 4509 c0 3660 2 4511 13 4519 9 8 62 -5 197 -47 l185 -57 3 439 c1
242 1 441 0 443 -5 5 -6397 1994 -6405 1993 -4 0 -350 -108 -768 -239z"/>
<path d="M2356 5971 c-149 -49 -257 -175 -292 -340 -11 -56 -14 -494 -14
-2848 l0 -2783 450 0 450 0 0 709 c0 637 2 709 16 715 20 8 6948 8 6968 0 14
-6 16 -77 16 -705 l0 -699 440 0 440 0 0 2143 c0 1408 -4 2164 -10 2205 -42
258 -228 424 -458 410 -109 -7 -180 -37 -256 -109 -68 -63 -115 -140 -143
-235 -16 -54 -18 -139 -23 -969 l-5 -910 -3500 0 -3500 0 -5 1525 c-5 1446 -6
1528 -24 1580 -48 145 -125 237 -244 293 -87 41 -213 48 -306 18z"/>
<path d="M3817 5370 c-436 -54 -758 -484 -706 -947 25 -224 110 -397 271 -548
114 -107 233 -170 381 -202 100 -21 277 -13 372 17 222 70 400 225 502 435 66
137 85 224 86 385 1 148 -11 214 -63 347 -132 342 -485 557 -843 513z"/>
<path d="M5069 4754 c-100 -35 -182 -121 -231 -242 -23 -56 -23 -63 -26 -499
-2 -339 -6 -444 -16 -452 -8 -7 -241 -11 -697 -13 -675 -3 -685 -4 -741 -25
-112 -42 -190 -113 -237 -213 -23 -49 -26 -67 -26 -165 0 -100 3 -116 29 -172
49 -106 148 -186 273 -218 86 -23 1824 -22 1900 0 106 32 199 120 246 235 22
55 22 57 25 729 2 450 -1 692 -8 726 -14 68 -59 160 -103 211 -20 22 -64 56
-99 74 -56 30 -73 34 -153 37 -63 2 -104 -2 -136 -13z"/>
<path d="M5700 3750 l0 -1000 2015 0 2016 0 -3 708 c-4 703 -4 707 -27 782
-74 245 -225 397 -476 481 l-70 24 -1727 3 -1728 2 0 -1000z"/>
</g>
</svg>
